<svg width="169" height="16" viewBox="0 0 169 16" fill="none" xmlns="http://www.w3.org/2000/svg">
<path d="M5.42045 15H0.264205V0.454545H5.46307C6.92614 0.454545 8.18561 0.745738 9.24148 1.32812C10.2973 1.90578 11.1094 2.73674 11.6776 3.82102C12.2505 4.9053 12.5369 6.20265 12.5369 7.71307C12.5369 9.22822 12.2505 10.5303 11.6776 11.6193C11.1094 12.7083 10.2926 13.544 9.22727 14.1264C8.16667 14.7088 6.89773 15 5.42045 15ZM3.33949 12.3651H5.29261C6.2017 12.3651 6.96638 12.2041 7.58665 11.8821C8.21165 11.5554 8.6804 11.0511 8.9929 10.3693C9.31013 9.68277 9.46875 8.79735 9.46875 7.71307C9.46875 6.63826 9.31013 5.75994 8.9929 5.07812C8.6804 4.39631 8.21402 3.89441 7.59375 3.57244C6.97348 3.25047 6.20881 3.08949 5.29972 3.08949H3.33949V12.3651ZM17.8903 0.454545V15H14.815V0.454545H17.8903ZM30.0653 5.15625C29.9659 4.81061 29.8262 4.50521 29.6463 4.24006C29.4664 3.97017 29.2462 3.7429 28.9858 3.55824C28.7301 3.36884 28.4366 3.22443 28.1051 3.125C27.7784 3.02557 27.4162 2.97585 27.0185 2.97585C26.2751 2.97585 25.6217 3.16051 25.0582 3.52983C24.4995 3.89915 24.0639 4.43655 23.7514 5.14205C23.4389 5.8428 23.2827 6.69981 23.2827 7.71307C23.2827 8.72633 23.4366 9.58807 23.7443 10.2983C24.0521 11.0085 24.4877 11.5507 25.0511 11.9247C25.6146 12.294 26.2798 12.4787 27.0469 12.4787C27.7429 12.4787 28.3371 12.3556 28.8295 12.1094C29.3267 11.8584 29.7055 11.5057 29.9659 11.0511C30.2311 10.5966 30.3636 10.0592 30.3636 9.43892L30.9886 9.53125H27.2386V7.21591H33.3253V9.0483C33.3253 10.3267 33.0554 11.4252 32.5156 12.3438C31.9759 13.2576 31.2325 13.9631 30.2855 14.4602C29.3385 14.9527 28.2543 15.1989 27.0327 15.1989C25.669 15.1989 24.4711 14.8982 23.4389 14.2969C22.4067 13.6908 21.6018 12.8314 21.0241 11.7188C20.4512 10.6013 20.1648 9.27557 20.1648 7.74148C20.1648 6.5625 20.3352 5.51136 20.6761 4.58807C21.0218 3.66004 21.5047 2.87405 22.125 2.23011C22.7453 1.58617 23.4673 1.09612 24.2912 0.759943C25.1151 0.423768 26.0076 0.255681 26.9688 0.255681C27.7926 0.255681 28.5597 0.37642 29.2699 0.617898C29.9801 0.85464 30.6098 1.19081 31.1591 1.62642C31.7131 2.06203 32.1652 2.58049 32.5156 3.18182C32.866 3.77841 33.0909 4.43655 33.1903 5.15625H30.0653ZM38.7106 0.454545V15H35.6353V0.454545H38.7106ZM40.6868 2.99006V0.454545H52.6328V2.99006H48.1797V15H45.1399V2.99006H40.6868ZM55.3299 15H52.0344L57.0558 0.454545H61.0188L66.033 15H62.7376L59.0941 3.77841H58.9805L55.3299 15ZM55.1239 9.28267H62.908V11.6832H55.1239V9.28267ZM67.7837 15V0.454545H70.859V12.4645H77.0948V15H67.7837ZM86.2674 15H82.9719L87.9933 0.454545H91.9563L96.9705 15H93.6751L90.0316 3.77841H89.918L86.2674 15ZM86.0614 9.28267H93.8455V11.6832H86.0614V9.28267ZM107.683 5.15625C107.583 4.81061 107.443 4.50521 107.263 4.24006C107.084 3.97017 106.863 3.7429 106.603 3.55824C106.347 3.36884 106.054 3.22443 105.722 3.125C105.396 3.02557 105.033 2.97585 104.636 2.97585C103.892 2.97585 103.239 3.16051 102.675 3.52983C102.117 3.89915 101.681 4.43655 101.369 5.14205C101.056 5.8428 100.9 6.69981 100.9 7.71307C100.9 8.72633 101.054 9.58807 101.362 10.2983C101.669 11.0085 102.105 11.5507 102.668 11.9247C103.232 12.294 103.897 12.4787 104.664 12.4787C105.36 12.4787 105.954 12.3556 106.447 12.1094C106.944 11.8584 107.323 11.5057 107.583 11.0511C107.848 10.5966 107.981 10.0592 107.981 9.43892L108.606 9.53125H104.856V7.21591H110.942V9.0483C110.942 10.3267 110.673 11.4252 110.133 12.3438C109.593 13.2576 108.85 13.9631 107.903 14.4602C106.956 14.9527 105.871 15.1989 104.65 15.1989C103.286 15.1989 102.088 14.8982 101.056 14.2969C100.024 13.6908 99.219 12.8314 98.6413 11.7188C98.0684 10.6013 97.782 9.27557 97.782 7.74148C97.782 6.5625 97.9524 5.51136 98.2933 4.58807C98.639 3.66004 99.1219 2.87405 99.7422 2.23011C100.362 1.58617 101.085 1.09612 101.908 0.759943C102.732 0.423768 103.625 0.255681 104.586 0.255681C105.41 0.255681 106.177 0.37642 106.887 0.617898C107.597 0.85464 108.227 1.19081 108.776 1.62642C109.33 2.06203 109.782 2.58049 110.133 3.18182C110.483 3.77841 110.708 4.43655 110.808 5.15625H107.683ZM113.252 15V0.454545H123.054V2.99006H116.328V6.45597H122.549V8.99148H116.328V12.4645H123.082V15H113.252ZM137.665 0.454545V15H135.009L128.68 5.84517H128.574V15H125.499V0.454545H128.197L134.476 9.60227H134.604V0.454545H137.665ZM153.039 5.54688H149.929C149.872 5.14441 149.756 4.78693 149.581 4.47443C149.405 4.1572 149.181 3.88731 148.906 3.66477C148.631 3.44223 148.314 3.27178 147.954 3.15341C147.599 3.03504 147.213 2.97585 146.797 2.97585C146.044 2.97585 145.388 3.16288 144.829 3.53693C144.27 3.90625 143.837 4.44602 143.529 5.15625C143.222 5.86174 143.068 6.71875 143.068 7.72727C143.068 8.7642 143.222 9.63542 143.529 10.3409C143.842 11.0464 144.278 11.5791 144.836 11.9389C145.395 12.2988 146.041 12.4787 146.775 12.4787C147.187 12.4787 147.568 12.4242 147.919 12.3153C148.274 12.2064 148.589 12.0478 148.863 11.8395C149.138 11.6264 149.365 11.3684 149.545 11.0653C149.73 10.7623 149.858 10.4167 149.929 10.0284L153.039 10.0426C152.959 10.7102 152.758 11.3542 152.436 11.9744C152.118 12.59 151.69 13.1416 151.15 13.6293C150.615 14.1122 149.976 14.4957 149.233 14.7798C148.494 15.0592 147.658 15.1989 146.725 15.1989C145.428 15.1989 144.268 14.9053 143.245 14.3182C142.227 13.7311 141.422 12.8812 140.831 11.7685C140.243 10.6558 139.95 9.30871 139.95 7.72727C139.95 6.1411 140.248 4.79167 140.845 3.67898C141.441 2.56629 142.251 1.71875 143.274 1.13636C144.297 0.549242 145.447 0.255681 146.725 0.255681C147.568 0.255681 148.35 0.374053 149.069 0.610795C149.794 0.847538 150.435 1.19318 150.994 1.64773C151.553 2.09754 152.007 2.64915 152.358 3.30256C152.713 3.95597 152.94 4.70407 153.039 5.54688ZM154.392 0.454545H157.837L161.154 6.71875H161.296L164.613 0.454545H168.057L162.752 9.85795V15H159.698V9.85795L154.392 0.454545Z" fill="#272D38"/>
</svg>
