<svg width="99" height="99" viewBox="0 0 99 99" fill="none" xmlns="http://www.w3.org/2000/svg">
<rect width="99" height="99" rx="10" fill="#8EADD5"/>
<path d="M29.767 68H17.995V31.6364H30.1399C33.7029 31.6364 36.7628 32.3643 39.3196 33.8203C41.8764 35.2644 43.8355 37.3419 45.1967 40.0526C46.5698 42.7514 47.2564 45.9889 47.2564 49.7649C47.2564 53.5528 46.5639 56.808 45.179 59.5305C43.8059 62.2531 41.8172 64.3482 39.2131 65.8161C36.6089 67.272 33.4602 68 29.767 68ZM23.4815 63.206H29.4652C32.2351 63.206 34.5374 62.6851 36.3722 61.6435C38.2069 60.59 39.58 59.0689 40.4915 57.0803C41.4029 55.0798 41.8587 52.6413 41.8587 49.7649C41.8587 46.9122 41.4029 44.4915 40.4915 42.5028C39.5919 40.5142 38.2483 39.005 36.4609 37.9751C34.6735 36.9453 32.4541 36.4304 29.8026 36.4304H23.4815V63.206ZM55.3441 68H49.5202L62.6062 31.6364H68.945L82.0309 68H76.207L65.9265 38.2415H65.6424L55.3441 68ZM56.3207 53.7599H75.2127V58.3764H56.3207V53.7599Z" fill="black"/>
</svg>
